# xmcd CD database file
#
# Track frame offsets:
#	150
#	17380
#	31513
#	48179
#	68560
#	87514
#	102202
#	118111
#	141643
#	155484
#	180545
#	194775
#	210897
#
# Disc length: 3031 seconds
#
# Revision: 2
# Processed by: cddbd v1.5.2PL0 Copyright (c) Steve Scherf et al.
# Submitted via: CDex 1.70beta2
#
DISCID=a80bd50d
DTITLE=Various Artist - Simply Musicals 4 - Lloyd Webber
DYEAR=2004
DGENRE=Musical
TTITLE0=Macavity - Cats
TTITLE1=With One Look - Sunset Boulevard
TTITLE2=Whistle Down The Wind - WDTW
TTITLE3=All I Ask Of You - Phantom
TTITLE4=Only You - Starlight Express
TTITLE5=Another Suitcase In Another Hall - Evita
TTITLE6=King Herod's Song - JCS
TTITLE7=Music Of The Night - Phantom
TTITLE8=Buenos Aries - Evita
TTITLE9=As If We Never Said Goodbye - Sunset Boulevard
TTITLE10=Unexpected Song - Song and Dance
TTITLE11=Close Every Door - Joseph
TTITLE12=Our Kind Of Love - The Beautiful Game
EXTD=YEAR: 2004
EXTT0=
EXTT1=
EXTT2=
EXTT3=
EXTT4=
EXTT5=
EXTT6=
EXTT7=
EXTT8=
EXTT9=
EXTT10=
EXTT11=
EXTT12=
PLAYORDER=
